#!OML:ASF H:\Punching\Project 1\Capture day 1\Session 1\female.ASF
:FULLY-SPECIFIED
:DEGREES
1734
root -1.26819 14.4952 5.74132 15.6009 -29.8111 -3.55832
lowerback -1.90046 -3.40858 -4.66371
upperback -5.90264 -4.63335 0.986211
thorax -4.60974 -2.10607 3.70961
lowerneck 2.65802 13.6948 23.4832
upperneck 33.117 21.0813 -11.2548
head 15.0996 11.0332 -5.48657
rclavicle -3.96296e-014 1.35174e-014
rhumerus 14.3028 41.5039 -78.8587
rradius 130.763
rwrist -42.7234
rhand -17.5006 -8.94578
rfingers 7.12502
rthumb 8.7523 -38.7443
lclavicle -3.96296e-014 1.35174e-014
lhumerus 39.8807 20.9521 49.0683
lradius 26.8228
lwrist -23.1444
lhand -3.39078 29.1757
lfingers 7.12502
lthumb 22.3389 57.9043
rfemur -56.1052 18.3195 14.5198
rtibia 47.9359
rfoot -8.7138 12.1566
rtoes -0.254339
lfemur 29.2906 24.9694 -2.97673
ltibia -5.08889e-014
lfoot -12.9298 -7.26888
ltoes -30.2095
1735
root -1.25365 14.4831 5.74759 15.5039 -30.4419 -3.70374
lowerback -1.71188 -3.80587 -4.86605
upperback -5.86434 -5.16866 1.22184
thorax -4.5885 -2.36081 4.08016
lowerneck 2.92806 14.0256 23.3992
upperneck 33.078 21.7614 -11.6822
head 15.2455 11.282 -5.53002
rclavicle -1.65382e-013 -7.15625e-015
rhumerus 15.0782 42.0368 -78.1684
rradius 130.475
rwrist -42.5776
rhand -17.5259 -8.97952
rfingers 7.12502
rthumb 8.72786 -38.7791
lclavicle -1.65382e-013 -7.15625e-015
lhumerus 41.8828 26.1669 53.3511
lradius 23.7745
lwrist -30.0069
lhand -2.86929 27.2723
lfingers 7.12502
lthumb 22.8394 55.94
rfemur -56.0197 18.3012 14.8755
rtibia 47.988
rfoot -8.51259 12.8348
rtoes 0.260287
lfemur 29.7887 25.3665 -2.76876
ltibia -9.54166e-015
lfoot -13.0353 -7.75012
ltoes -30.3345
1736
root -1.23698 14.4753 5.75726 15.483 -30.9846 -3.82553
lowerback -1.60346 -4.13279 -4.96306
upperback -5.82801 -5.60554 1.43192
thorax -4.53808 -2.57296 4.35935
lowerneck 3.11492 14.3087 23.2776
upperneck 32.9469 22.3762 -12.1864
head 15.3587 11.4903 -5.6059
rclavicle 5.21678e-014 -2.38542e-015
rhumerus 15.875 42.4663 -77.4547
rradius 130.254
rwrist -42.5025
rhand -17.5574 -8.98
rfingers 7.12502
rthumb 8.69746 -38.7808
lclavicle 5.21678e-014 -2.38542e-015
lhumerus 43.5915 30.3983 57.2289
lradius 22.5134
lwrist -34.5107
lhand -2.65581 25.607
lfingers 7.12502
lthumb 23.0443 54.2492
rfemur -55.9881 18.2086 15.168
rtibia 48.0098
rfoot -8.30934 13.4966
rtoes 0.797939
lfemur 30.1394 25.7232 -2.66068
ltibia -6.36111e-015
lfoot -13.1126 -8.11065
ltoes -30.4677
1737
root -1.21897 14.4713 5.77038 15.5296 -31.4658 -3.90746
lowerback -1.5945 -4.36464 -4.95532
upperback -5.79936 -5.91061 1.59267
thorax -4.46416 -2.72595 4.52072
lowerneck 3.23453 14.5241 23.1298
upperneck 32.7447 22.8871 -12.7332
head 15.4322 11.6474 -5.71202
rclavicle 3.35406e-014 -2.06736e-014
rhumerus 16.5982 42.7529 -76.7841
rradius 130.104
rwrist -42.4312
rhand -17.5989 -8.9575
rfingers 7.12502
rthumb 8.65743 -38.76
lclavicle 3.35406e-014 -2.06736e-014
lhumerus 43.865 32.4149 58.9343
lradius 22.9725
lwrist -34.691
lhand -2.70018 24.4758
lfingers 7.12502
lthumb 23.0017 53.1233
rfemur -56.0271 18.0877 15.3667
rtibia 48.0126
rfoot -8.1073 14.1124
rtoes 1.33659
lfemur 30.3514 26.0607 -2.6701
ltibia -6.36111e-015
lfoot -13.1437 -8.34686
ltoes -30.5571
1738
root -1.20053 14.4707 5.78672 15.6198 -31.8967 -3.93466
lowerback -1.67989 -4.48768 -4.85102
upperback -5.78426 -6.06676 1.68599
thorax -4.38244 -2.81034 4.55081
lowerneck 3.29005 14.659 22.9566
upperneck 32.5182 23.2595 -13.2629
head 15.4682 11.7439 -5.83279
rclavicle -2.28936e-014 -1.43125e-014
rhumerus 17.1553 42.8668 -76.2234
rradius 130.021
rwrist -42.3199
rhand -17.6207 -8.94554
rfingers 7.12502
rthumb 8.63641 -38.7489
lclavicle -2.28936e-014 -1.43125e-014
lhumerus 42.3138 32.0313 58.0953
lradius 25.0045
lwrist -30.2852
lhand -3.10278 24.1064
lfingers 7.12502
lthumb 22.6153 52.8016
rfemur -56.1292 17.9754 15.4529
rtibia 48.0071
rfoot -7.92271 14.6441
rtoes 1.83058
lfemur 30.4461 26.3798 -2.79947
ltibia -2.54444e-014
lfoot -13.111 -8.46965
ltoes -30.5842
1739
root -1.18255 14.4732 5.80567 15.7272 -32.2712 -3.9039
lowerback -1.82715 -4.50858 -4.66925
upperback -5.79001 -6.08547 1.71155
thorax -4.31734 -2.82977 4.4638
lowerneck 3.2949 14.7162 22.7613
upperneck 32.3231 23.4887 -13.7245
head 15.4797 11.7822 -5.95106
rclavicle 2.09912e-014 -3.97569e-015
rhumerus 17.4721 42.8141 -75.8272
rradius 130.001
rwrist -42.1598
rhand -17.6186 -8.92545
rfingers 7.12502
rthumb 8.63844 -38.7287
lclavicle 2.09912e-014 -3.97569e-015
lhumerus 39.6656 29.9196 55.8826
lradius 28.4816
lwrist -22.6185
lhand -4.00566 24.6704
lfingers 7.12502
lthumb 21.7485 53.4686
rfemur -56.273 17.8983 15.4238
rtibia 48.0025
rfoot -7.76684 15.0511
rtoes 2.25016
lfemur 30.4473 26.6632 -3.03175
ltibia 3.18055e-014
lfoot -12.9996 -8.50187
ltoes -30.5478
1740
root -1.16567 14.4789 5.8266 15.8201 -32.5701 -3.81368
lowerback -2.01526 -4.44128 -4.4249
upperback -5.79885 -5.98654 1.6645
thorax -4.2582 -2.79403 4.26437
lowerneck 3.20353 14.7067 22.534
upperneck 32.2085 23.5646 -14.0422
head 15.4805 11.7589 -6.03284
rclavicle 1.35961e-013 2.38542e-014
rhumerus 17.5545 42.5874 -75.6086
rradius 130.032
rwrist -41.9741
rhand -17.5883 -8.89914
rfingers 7.12502
rthumb 8.66768 -38.7012
lclavicle 1.35961e-013 2.38542e-014
lhumerus 36.8271 26.9841 53.625
lradius 33.2588
lwrist -13.4846
lhand -5.53535 26.1378
lfingers 7.12502
lthumb 20.279 55.0991
rfemur -56.4253 17.8676 15.2831
rtibia 48.0048
rfoot -7.65484 15.2991
rtoes 2.55579
lfemur 30.3825 26.8798 -3.34179
ltibia -2.54444e-014
lfoot -12.8094 -8.47241
ltoes -30.4499
1741
root -1.15025 14.4877 5.84853 15.8737 -32.7706 -3.6568
lowerback -2.1912 -4.32284 -4.16804
upperback -5.82114 -5.82234 1.56942
thorax -4.23163 -2.7257 4.01116
lowerneck 3.04722 14.6473 22.2902
upperneck 32.1911 23.5229 -14.223
head 15.4846 11.6912 -6.07815
rclavicle -6.51688e-014 3.65764e-014
rhumerus 17.4156 42.2475 -75.5731
rradius 130.106
rwrist -41.8176
rhand -17.5424 -8.8819
rfingers 7.12502
rthumb 8.71196 -38.6821
lclavicle -6.51688e-014 3.65764e-014
lhumerus 34.1641 23.9109 51.8829
lradius 39.049
lwrist -4.32624
lhand -7.65483 28.2051
lfingers 7.12502
lthumb 18.2409 57.3698
rfemur -56.5635 17.8798 15.0304
rtibia 48.0169
rfoot -7.59799 15.3652
rtoes 2.71268
lfemur 30.2639 26.9977 -3.71424
ltibia -4.45278e-014
lfoot -12.5471 -8.4106
ltoes -30.3401
1742
root -1.13659 14.4994 5.87031 15.8838 -32.8528 -3.44759
lowerback -2.35821 -4.17592 -3.9085
upperback -5.82938 -5.6218 1.4347
thorax -4.20084 -2.6402 3.71625
lowerneck 2.80835 14.5552 22.0429
upperneck 32.2557 23.3887 -14.2787
head 15.4991 11.5886 -6.08569
rclavicle -4.5764e-014 -1.51076e-014
rhumerus 17.1493 41.8071 -75.6852
rradius 130.196
rwrist -41.7368
rhand -17.5174 -8.84909
rfingers 7.12502
rthumb 8.73604 -38.6483
lclavicle -4.5764e-014 -1.51076e-014
lhumerus 31.8073 21.0772 50.762
lradius 45.4584
lwrist 3.85469
lhand -10.033 30.4152
lfingers 7.12502
lthumb 15.9518 59.7783
rfemur -56.6726 17.9305 14.6843
rtibia 48.038
rfoot -7.60031 15.2389
rtoes 2.71177
lfemur 30.0989 26.9945 -4.1184
ltibia 3.81667e-014
lfoot -12.2229 -8.34334
ltoes -30.2511
1743
root -1.1248 14.5138 5.8911 15.8499 -32.7955 -3.19572
lowerback -2.49342 -4.02898 -3.66818
upperback -5.82524 -5.42325 1.28272
thorax -4.17228 -2.55509 3.41661
lowerneck 2.52163 14.4422 21.804
upperneck 32.3737 23.1945 -14.2487
head 15.5209 11.4656 -6.06836
rclavicle -3.73902e-014 -2.22639e-014
rhumerus 16.8101 41.3129 -75.9182
rradius 130.291
rwrist -41.7711
rhand -17.5292 -8.81463
rfingers 7.12502
rthumb 8.72469 -38.6143
lclavicle -3.73902e-014 -2.22639e-014
lhumerus 29.6734 18.5839 50.0979
lradius 52.1248
lwrist 10.6047
lhand -12.2393 32.3846
lfingers 7.12502
lthumb 13.8264 61.905
rfemur -56.7415 18.0036 14.2617
rtibia 48.0653
rfoot -7.66165 14.9206
rtoes 2.54857
lfemur 29.8864 26.849 -4.53427
ltibia -1.59028e-014
lfoot -11.8522 -8.28651
ltoes -30.2245
1744
root -1.11492 14.5307 5.91012 15.7768 -32.5875 -2.90912
lowerback -2.58472 -3.89953 -3.46317
upperback -5.80904 -5.24981 1.13043
thorax -4.14855 -2.48079 3.13928
lowerneck 2.20938 14.3143 21.5818
upperneck 32.515 22.9628 -14.1746
head 15.5457 11.3312 -6.04097
rclavicle -6.89783e-014 -2.78299e-014
rhumerus 16.4554 40.8043 -76.2361
rradius 130.374
rwrist -41.937
rhand -17.5893 -8.7946
rfingers 7.12502
rthumb 8.66672 -38.5967
lclavicle -6.89783e-014 -2.78299e-014
lhumerus 27.6695 16.4105 49.7295
lradius 58.8038
lwrist 15.7886
lhand -13.9252 33.9572
lfingers 7.12502
lthumb 12.2012 63.5814
rfemur -56.7662 18.0833 13.7755
rtibia 48.0961
rfoot -7.77202 14.4239
rtoes 2.26618
lfemur 29.6233 26.5517 -4.95019
ltibia -6.36111e-014
lfoot -11.4439 -8.24651
ltoes -30.2842
1745
root -1.10701 14.5499 5.9269 15.678 -32.2176 -2.60133
lowerback -2.63268 -3.79443 -3.29088
upperback -5.78219 -5.10997 0.989159
thorax -4.13013 -2.42141 2.89427
lowerneck 1.89227 14.1698 21.3775
upperneck 32.6503 22.7031 -14.0945
head 15.5643 11.188 -6.01883
rclavicle 1.84497e-015 2.38542e-015
rhumerus 16.122 40.2991 -76.5981
rradius 130.438
rwrist -42.2253
rhand -17.6876 -8.76638
rfingers 7.12502
rthumb 8.57186 -38.5724
lclavicle 1.84497e-015 2.38542e-015
lhumerus 25.7392 14.4708 49.5429
lradius 65.3579
lwrist 19.4922
lhand -14.9604 35.1205
lfingers 7.12502
lthumb 11.2029 64.8014
rfemur -56.7461 18.15 13.2452
rtibia 48.1262
rfoot -7.92334 13.7672
rtoes 1.89159
lfemur 29.3009 26.0962 -5.35519
ltibia -2.22639e-014
lfoot -11.0051 -8.21969
ltoes -30.42
